<?xml version="1.0" encoding="UTF-8" standalone="no"?>
<svg
   xmlns:dc="http://purl.org/dc/elements/1.1/"
   xmlns:cc="http://creativecommons.org/ns#"
   xmlns:rdf="http://www.w3.org/1999/02/22-rdf-syntax-ns#"
   xmlns:svg="http://www.w3.org/2000/svg"
   xmlns="http://www.w3.org/2000/svg"
   xmlns:sodipodi="http://sodipodi.sourceforge.net/DTD/sodipodi-0.dtd"
   xmlns:inkscape="http://www.inkscape.org/namespaces/inkscape"
   width="1792"
   height="1792"
   viewBox="0 0 1792 1792"
   id="svg2"
   version="1.1"
   inkscape:version="0.91 r13725"
   sodipodi:docname="facebook-round-white.svg">
  <metadata
     id="metadata10">
    <rdf:RDF>
      <cc:Work
         rdf:about="">
        <dc:format>image/svg+xml</dc:format>
        <dc:type
           rdf:resource="http://purl.org/dc/dcmitype/StillImage" />
        <dc:title></dc:title>
      </cc:Work>
    </rdf:RDF>
  </metadata>
  <defs
     id="defs8" />
  <sodipodi:namedview
     pagecolor="#ffffff"
     bordercolor="#666666"
     borderopacity="1"
     objecttolerance="10"
     gridtolerance="10"
     guidetolerance="10"
     inkscape:pageopacity="0"
     inkscape:pageshadow="2"
     inkscape:window-width="1366"
     inkscape:window-height="704"
     id="namedview6"
     showgrid="false"
     showguides="true"
     inkscape:guide-bbox="true"
     inkscape:zoom="0.18624688"
     inkscape:cx="611.3294"
     inkscape:cy="1120.7887"
     inkscape:window-x="0"
     inkscape:window-y="27"
     inkscape:window-maximized="1"
     inkscape:current-layer="svg2">
    <sodipodi:guide
       position="0,0"
       orientation="0,1792"
       id="guide4138" />
    <sodipodi:guide
       position="1792,0"
       orientation="-1792,0"
       id="guide4140" />
    <sodipodi:guide
       position="1792,1792"
       orientation="0,-1792"
       id="guide4142" />
    <sodipodi:guide
       position="0,1792"
       orientation="1792,0"
       id="guide4144" />
    <sodipodi:guide
       position="0,1792"
       orientation="0.70710678,0.70710678"
       id="guide4146" />
    <sodipodi:guide
       position="1792,1792"
       orientation="-0.70710678,0.70710678"
       id="guide4148" />
    <sodipodi:guide
       position="896,896"
       orientation="0,1"
       id="guide4150" />
    <sodipodi:guide
       position="896,896"
       orientation="1,0"
       id="guide4152" />
  </sodipodi:namedview>
  <path
     style="opacity:0.95;fill:#ececec;fill-opacity:1;stroke:none;stroke-opacity:0"
     d="M 896 -2.3320312 A 898.3313 898.3313 0 0 0 -2.3320312 896 A 898.3313 898.3313 0 0 0 896 1794.332 A 898.3313 898.3313 0 0 0 1794.332 896 A 898.3313 898.3313 0 0 0 896 -2.3320312 z M 1059.4746 229.2793 C 1138.0067 229.2793 1198.9087 232.48375 1242.1816 238.89453 L 1242.1816 450.45117 L 1116.3711 450.45117 C 1070.4272 450.45117 1039.441 460.06647 1023.4141 479.29883 C 1007.3871 498.53118 999.37305 527.37904 999.37305 565.84375 L 999.37305 717.29883 L 1234.168 717.29883 L 1202.916 954.49805 L 999.37305 954.49805 L 999.37305 1562.7207 L 754.16211 1562.7207 L 754.16211 954.49805 L 549.81836 954.49805 L 549.81836 717.29883 L 754.16211 717.29883 L 754.16211 542.60547 C 754.16211 443.2383 781.94181 366.1748 837.50195 311.41602 C 893.06207 256.65724 967.05249 229.2793 1059.4746 229.2793 z "
     id="path4154" />
</svg>
