<?xml version="1.0" encoding="UTF-8" standalone="no"?>
<svg
   xmlns:dc="http://purl.org/dc/elements/1.1/"
   xmlns:cc="http://creativecommons.org/ns#"
   xmlns:rdf="http://www.w3.org/1999/02/22-rdf-syntax-ns#"
   xmlns:svg="http://www.w3.org/2000/svg"
   xmlns="http://www.w3.org/2000/svg"
   xmlns:sodipodi="http://sodipodi.sourceforge.net/DTD/sodipodi-0.dtd"
   xmlns:inkscape="http://www.inkscape.org/namespaces/inkscape"
   width="1792"
   height="1792"
   viewBox="0 0 1792 1792"
   id="svg2"
   version="1.1"
   inkscape:version="0.91 r13725"
   sodipodi:docname="github-round-white.svg">
  <metadata
     id="metadata10">
    <rdf:RDF>
      <cc:Work
         rdf:about="">
        <dc:format>image/svg+xml</dc:format>
        <dc:type
           rdf:resource="http://purl.org/dc/dcmitype/StillImage" />
        <dc:title></dc:title>
      </cc:Work>
    </rdf:RDF>
  </metadata>
  <defs
     id="defs8" />
  <sodipodi:namedview
     pagecolor="#ffffff"
     bordercolor="#666666"
     borderopacity="1"
     objecttolerance="10"
     gridtolerance="10"
     guidetolerance="10"
     inkscape:pageopacity="0"
     inkscape:pageshadow="2"
     inkscape:window-width="1366"
     inkscape:window-height="704"
     id="namedview6"
     showgrid="false"
     showguides="false"
     inkscape:zoom="0.26339286"
     inkscape:cx="829.03393"
     inkscape:cy="871.70991"
     inkscape:window-x="0"
     inkscape:window-y="27"
     inkscape:window-maximized="1"
     inkscape:current-layer="svg2" />
  <path
     style="opacity:0.95;fill:#e6e6e6;fill-opacity:1;stroke:none;stroke-opacity:0"
     d="M 896 -3.796875 A 899.79663 899.79663 0 0 0 -3.796875 896 A 899.79663 899.79663 0 0 0 896 1795.7969 A 899.79663 899.79663 0 0 0 1795.7969 896 A 899.79663 899.79663 0 0 0 896 -3.796875 z M 896 246.85742 C 1016.7192 246.85742 1128.0528 276.60444 1230 336.09766 C 1331.9471 395.59087 1412.6669 476.3107 1472.1602 578.25781 C 1531.6534 680.20493 1561.4004 791.53856 1561.4004 912.25781 C 1561.4004 1057.2364 1519.0897 1187.6299 1434.4707 1303.4395 C 1349.8517 1419.2491 1240.5412 1499.3917 1106.5371 1543.8672 C 1090.9418 1546.7552 1079.5345 1544.7339 1072.3145 1537.8027 C 1065.0944 1530.8714 1061.4844 1522.2074 1061.4844 1511.8105 L 1061.4844 1329 C 1061.4844 1272.9724 1046.4651 1231.961 1016.4297 1205.9688 C 1049.3531 1202.5032 1078.9553 1197.3063 1105.2363 1190.375 C 1131.5173 1183.4438 1158.6659 1172.1794 1186.6797 1156.584 C 1214.6935 1140.9887 1238.0853 1121.7841 1256.8574 1098.9688 C 1275.6296 1076.1534 1290.9365 1045.8292 1302.7773 1007.9961 C 1314.6181 970.16295 1320.5391 926.69788 1320.5391 877.60156 C 1320.5391 807.71148 1297.7244 748.21743 1252.0938 699.12109 C 1273.4651 646.55911 1271.1544 587.64425 1245.1621 522.375 C 1228.9892 517.17657 1205.5954 520.35417 1174.9824 531.90625 C 1144.3694 543.45833 1117.8 556.16485 1095.2734 570.02734 L 1062.3496 590.82031 C 1008.6324 575.80261 953.18282 568.29492 896 568.29492 C 838.81719 568.29492 783.36756 575.80261 729.65039 590.82031 C 720.40872 584.46667 708.13463 576.66939 692.82812 567.42773 C 677.52162 558.18607 653.40585 547.06835 620.48242 534.07227 C 587.55899 521.07617 562.72318 517.17657 545.97266 522.375 C 520.55807 587.64425 518.53489 646.55911 539.90625 699.12109 C 494.27553 748.21743 471.46094 807.71148 471.46094 877.60156 C 471.46094 926.69788 477.38177 970.01822 489.22266 1007.5625 C 501.06354 1045.1068 516.22566 1075.431 534.70898 1098.5352 C 553.19231 1121.6393 576.44128 1140.9887 604.45508 1156.584 C 632.46888 1172.1794 659.6155 1183.4438 685.89648 1190.375 C 712.17747 1197.3063 741.7797 1202.5032 774.70312 1205.9688 C 751.59897 1226.7626 737.44844 1256.5095 732.25 1295.209 C 720.12031 1300.985 707.12422 1305.3171 693.26172 1308.2051 C 679.39923 1311.0931 662.93594 1312.5371 643.875 1312.5371 C 624.81407 1312.5371 605.89909 1306.3286 587.12695 1293.9102 C 568.35482 1281.4916 552.3259 1263.4415 539.04102 1239.7598 C 528.06654 1221.2765 514.05885 1206.2592 497.01953 1194.707 C 479.98021 1183.155 465.6849 1176.2226 454.13281 1173.9121 L 436.80469 1171.3125 C 424.67501 1171.3125 416.30052 1172.6137 411.67969 1175.2129 C 407.05885 1177.8121 405.61484 1181.1325 407.34766 1185.1758 C 409.08047 1189.219 411.6789 1193.2616 415.14453 1197.3047 C 418.61015 1201.348 422.36498 1204.8151 426.4082 1207.7031 L 432.47266 1212.0352 C 445.17994 1217.8112 457.74362 1228.7841 470.16211 1244.957 C 482.5806 1261.13 491.67708 1275.8597 497.45312 1289.1445 L 506.11719 1309.0723 C 513.62604 1331.0212 526.33255 1348.7817 544.23828 1362.3555 C 562.14401 1375.9291 581.49532 1384.5933 602.28906 1388.3477 C 623.08281 1392.1021 643.15417 1394.1232 662.50391 1394.4121 C 681.85364 1394.7009 697.88256 1393.6913 710.58984 1391.3809 L 730.51562 1387.9141 C 730.51562 1409.863 730.66042 1435.5676 730.94922 1465.0254 C 731.23803 1494.4833 731.38281 1510.0778 731.38281 1511.8105 C 731.38281 1522.2074 727.62799 1530.8714 720.11914 1537.8027 C 712.61028 1544.7339 701.0582 1546.7552 685.46289 1543.8672 C 551.45875 1499.3917 442.14829 1419.2491 357.5293 1303.4395 C 272.9103 1187.6299 230.59961 1057.2364 230.59961 912.25781 C 230.59961 791.53856 260.34662 680.20493 319.83984 578.25781 C 379.33305 476.3107 460.05288 395.59087 562 336.09766 C 663.94711 276.60444 775.28074 246.85742 896 246.85742 z "
     id="path4140" />
</svg>
