<?xml version="1.0" encoding="UTF-8" standalone="no"?>
<svg
   xmlns:dc="http://purl.org/dc/elements/1.1/"
   xmlns:cc="http://creativecommons.org/ns#"
   xmlns:rdf="http://www.w3.org/1999/02/22-rdf-syntax-ns#"
   xmlns:svg="http://www.w3.org/2000/svg"
   xmlns="http://www.w3.org/2000/svg"
   xmlns:sodipodi="http://sodipodi.sourceforge.net/DTD/sodipodi-0.dtd"
   xmlns:inkscape="http://www.inkscape.org/namespaces/inkscape"
   width="1792"
   height="1792"
   viewBox="0 0 1792 1792"
   id="svg2"
   version="1.1"
   inkscape:version="0.91 r13725"
   sodipodi:docname="twitter-round-white.svg">
  <metadata
     id="metadata10">
    <rdf:RDF>
      <cc:Work
         rdf:about="">
        <dc:format>image/svg+xml</dc:format>
        <dc:type
           rdf:resource="http://purl.org/dc/dcmitype/StillImage" />
        <dc:title></dc:title>
      </cc:Work>
    </rdf:RDF>
  </metadata>
  <defs
     id="defs8" />
  <sodipodi:namedview
     pagecolor="#ffffff"
     bordercolor="#666666"
     borderopacity="1"
     objecttolerance="10"
     gridtolerance="10"
     guidetolerance="10"
     inkscape:pageopacity="0"
     inkscape:pageshadow="2"
     inkscape:window-width="1366"
     inkscape:window-height="704"
     id="namedview6"
     showgrid="false"
     inkscape:zoom="0.26339286"
     inkscape:cx="813.09227"
     inkscape:cy="877.53741"
     inkscape:window-x="0"
     inkscape:window-y="27"
     inkscape:window-maximized="1"
     inkscape:current-layer="svg2" />
  <path
     style="opacity:0.95;fill:#e6e6e6;fill-opacity:1;stroke:none;stroke-opacity:0"
     d="M 899.79688 0 A 899.79663 899.79663 0 0 0 0 899.79688 A 899.79663 899.79663 0 0 0 899.79688 1799.5938 A 899.79663 899.79663 0 0 0 1799.5938 899.79688 A 899.79663 899.79663 0 0 0 899.79688 0 z M 1125.3047 411.66016 C 1195.9374 411.66016 1255.4704 437.3925 1303.9043 488.85352 C 1358.897 478.2586 1410.6111 458.58184 1459.0449 429.82422 C 1440.3777 487.84399 1404.5566 532.74651 1351.582 564.53125 C 1398.5024 559.48606 1445.4215 546.8722 1492.3418 526.69141 C 1458.5389 576.13435 1417.6735 618.26235 1369.7441 653.07422 C 1370.2487 660.13749 1370.5 670.73282 1370.5 684.85938 C 1370.5 750.44694 1360.9159 815.90685 1341.7441 881.24219 C 1322.5724 946.57749 1293.4363 1009.2649 1254.3359 1069.3027 C 1215.2357 1129.3406 1168.6926 1182.4419 1114.709 1228.6055 C 1060.7253 1274.769 995.64344 1311.5974 919.46094 1339.0938 C 843.27846 1366.5901 761.79694 1380.3398 675.01953 1380.3398 C 538.29468 1380.3398 413.17516 1343.7608 299.6582 1270.6055 C 317.3164 1272.6236 336.99119 1273.6328 358.68555 1273.6328 C 472.20249 1273.6328 573.35881 1238.8211 662.1543 1169.1973 C 609.17972 1168.1883 561.756 1151.9173 519.88086 1120.3848 C 478.00571 1088.8523 449.24753 1048.6181 433.60742 999.67969 C 450.25658 1002.2023 465.64493 1003.4629 479.77148 1003.4629 C 501.46584 1003.4629 522.90782 1000.6884 544.09766 995.13867 C 487.59143 983.53472 440.79704 955.40781 403.71484 910.75781 C 366.63264 866.10781 348.0918 814.26708 348.0918 755.23828 L 348.0918 752.21094 C 382.39914 771.38268 419.22948 781.72667 458.58203 783.24023 C 425.28372 761.04137 398.79541 732.03184 379.11914 696.21094 C 359.44287 660.39004 349.60547 621.54116 349.60547 579.66602 C 349.60547 535.26827 360.70542 494.14952 382.9043 456.31055 C 443.95118 531.48399 518.24121 591.64821 605.77539 636.80273 C 693.30957 681.95726 787.02305 707.05832 886.91797 712.10352 C 882.88181 692.93176 880.86523 674.26428 880.86523 656.10156 C 880.86523 588.49592 904.70374 530.8529 952.38086 483.17578 C 1000.058 435.49867 1057.6991 411.66016 1125.3047 411.66016 z "
     id="path4138" />
</svg>
