<?xml version="1.0" encoding="UTF-8" standalone="no"?>
<svg
   xmlns:dc="http://purl.org/dc/elements/1.1/"
   xmlns:cc="http://creativecommons.org/ns#"
   xmlns:rdf="http://www.w3.org/1999/02/22-rdf-syntax-ns#"
   xmlns:svg="http://www.w3.org/2000/svg"
   xmlns="http://www.w3.org/2000/svg"
   xmlns:sodipodi="http://sodipodi.sourceforge.net/DTD/sodipodi-0.dtd"
   xmlns:inkscape="http://www.inkscape.org/namespaces/inkscape"
   width="1792"
   height="1792"
   viewBox="0 0 1792 1792"
   id="svg2"
   version="1.1"
   inkscape:version="0.91 r13725"
   sodipodi:docname="youtube-round-white.svg">
  <metadata
     id="metadata10">
    <rdf:RDF>
      <cc:Work
         rdf:about="">
        <dc:format>image/svg+xml</dc:format>
        <dc:type
           rdf:resource="http://purl.org/dc/dcmitype/StillImage" />
        <dc:title />
      </cc:Work>
    </rdf:RDF>
  </metadata>
  <defs
     id="defs8" />
  <sodipodi:namedview
     pagecolor="#ffffff"
     bordercolor="#666666"
     borderopacity="1"
     objecttolerance="10"
     gridtolerance="10"
     guidetolerance="10"
     inkscape:pageopacity="0"
     inkscape:pageshadow="2"
     inkscape:window-width="1366"
     inkscape:window-height="704"
     id="namedview6"
     showgrid="false"
     inkscape:zoom="0.13169643"
     inkscape:cx="-1161.7627"
     inkscape:cy="880.81357"
     inkscape:window-x="0"
     inkscape:window-y="27"
     inkscape:window-maximized="1"
     inkscape:current-layer="svg2" />
  <path
     style="opacity:0.95;fill:#f9f9f9;fill-opacity:1;stroke:none;stroke-opacity:0"
     d="M 896 -7.59375 A 903.5932 903.5932 0 0 0 -7.59375 896 A 903.5932 903.5932 0 0 0 896 1799.5938 A 903.5932 903.5932 0 0 0 1799.5938 896 A 903.5932 903.5932 0 0 0 896 -7.59375 z M 896 445.83008 C 1106.5481 445.83008 1263.8729 451.69284 1367.9746 463.41602 C 1401.2684 467.16742 1430.4593 480.76461 1455.5469 504.21094 C 1480.6344 527.65726 1496.9288 556.49688 1504.4316 590.72852 C 1510.9966 621.20874 1516.0378 655.79208 1519.5547 694.47852 C 1523.0717 733.16496 1525.0643 765.17016 1525.5332 790.49219 C 1526.0021 815.81422 1526.2363 850.98307 1526.2363 896 C 1526.2363 941.01697 1526.0021 976.18583 1525.5332 1001.5078 C 1525.0643 1026.8299 1523.0717 1058.835 1519.5547 1097.5215 C 1516.0378 1136.208 1510.7624 1170.7913 1503.7285 1201.2715 C 1496.2257 1235.5032 1480.0484 1264.3428 1455.1953 1287.7891 C 1430.3422 1311.2354 1401.2684 1324.8326 1367.9746 1328.584 C 1263.8729 1340.3072 1106.5481 1346.1699 896 1346.1699 C 685.45198 1346.1699 528.12709 1340.3072 424.02539 1328.584 C 390.7316 1324.8326 361.54069 1311.2354 336.45312 1287.7891 C 311.36555 1264.3428 295.07119 1235.5032 287.56836 1201.2715 C 281.00339 1170.7913 275.96226 1136.208 272.44531 1097.5215 C 268.92836 1058.835 266.93572 1026.8299 266.4668 1001.5078 C 265.99787 976.18583 265.76367 941.01697 265.76367 896 C 265.76367 850.98307 265.99787 815.81422 266.4668 790.49219 C 266.93572 765.17016 268.92836 733.16496 272.44531 694.47852 C 275.96226 655.79208 281.23758 621.20874 288.27148 590.72852 C 295.7743 556.49688 311.95158 527.65726 336.80469 504.21094 C 361.65779 480.76461 390.7316 467.16742 424.02539 463.41602 C 528.12709 451.69284 685.45198 445.83008 896 445.83008 z M 761.10156 625.5293 C 753.93715 625.57051 746.61805 627.56883 739.14453 631.52539 C 723.66995 639.96607 715.93164 653.0968 715.93164 670.91602 L 715.93164 1121.084 C 715.93164 1138.9033 723.66995 1152.0339 739.14453 1160.4746 C 746.64735 1164.226 753.91532 1166.1016 760.94922 1166.1016 C 770.32775 1166.1016 778.30025 1163.7576 784.86523 1159.0684 L 1145 933.98242 C 1159.0678 926.01064 1166.1016 913.35031 1166.1016 896 C 1166.1016 878.64976 1159.0678 865.98936 1145 858.01758 L 784.86523 632.93164 C 777.1426 627.9493 769.22123 625.48259 761.10156 625.5293 z "
     id="path4138" />
</svg>
